#N canvas -1894 0 1871 1283.16 10;
#X obj 264 435 output~;
#X obj 280 283 random 100;
#X floatatom 280 347 5 0 0 1 frecuencia - -, f 5;
#X floatatom 337 258 5 0 0 1 max - -, f 5;
#X obj 280 371 osc~;
#X obj 280 308 + 50;
#X obj 203 259 metro 100;
#X floatatom 254 232 5 0 0 1 ms - -, f 5;
#X obj 203 284 bng 15 250 50 0 empty empty empty 17 7 0 10 -262144
-1 -1;
#X msg 203 234 stop;
#X msg 203 209 bang;
#X obj 254 147 random 2000;
#X obj 254 172 + 10;
#X obj 254 98 metro 100;
#X obj 254 123 bng 15 250 50 0 empty empty empty 17 7 0 10 -262144
-1 -1;
#X msg 254 73 stop;
#X msg 254 48 bang;
#X floatatom 305 69 5 0 0 1 ms - -, f 5;
#X obj 204 15 loadbang;
#X obj 276 202 moses 1000;
#X floatatom 457 211 5 0 0 0 - - -, f 5;
#X obj 484 272 line 100 100;
#X obj 484 247 pack f f;
#X floatatom 484 297 5 0 0 0 - - -, f 5;
#X msg 529 111 bang;
#X text 565 206 <---factor de tiempo;
#X obj 457 161 random 127;
#X obj 457 186 / 127;
#X obj 484 321 line~;
#X obj 280 396 *~;
#X msg 337 233 3000;
#X msg 529 206 250;
#X text 39 64 RTC-LIB;
#X connect 1 0 5 0;
#X connect 2 0 4 0;
#X connect 3 0 1 1;
#X connect 4 0 29 0;
#X connect 5 0 2 0;
#X connect 6 0 8 0;
#X connect 7 0 6 1;
#X connect 8 0 1 0;
#X connect 8 0 24 0;
#X connect 9 0 6 0;
#X connect 10 0 6 0;
#X connect 11 0 12 0;
#X connect 12 0 19 0;
#X connect 13 0 14 0;
#X connect 14 0 11 0;
#X connect 15 0 13 0;
#X connect 16 0 13 0;
#X connect 17 0 13 1;
#X connect 18 0 10 0;
#X connect 18 0 16 0;
#X connect 18 0 30 0;
#X connect 19 0 7 0;
#X connect 19 1 17 0;
#X connect 20 0 22 0;
#X connect 21 0 23 0;
#X connect 22 0 21 0;
#X connect 23 0 28 0;
#X connect 24 0 31 0;
#X connect 24 0 26 0;
#X connect 26 0 27 0;
#X connect 27 0 20 0;
#X connect 28 0 29 1;
#X connect 29 0 0 0;
#X connect 29 0 0 1;
#X connect 30 0 3 0;
#X connect 31 0 22 1;
