#N canvas -2409 -9 2390 1301.22 10;
#N canvas -2183 67 1322 1036.16 canvas 0;
#X obj 280 35 cnv 15 271 223 empty empty canvas 20 12 0 14 -233017
-66577 0;
#X obj 138 115 sin~ 440;
#X floatatom 303 85 5 0 0 2 frecuencia - -, f 5;
#X text 371 44 onda sinusoide;
#X obj 138 141 *~ 0.5;
#X obj 138 174 dac~;
#X floatatom 304 120 5 0 0 2 volumen - -, f 5;
#X obj 500 122 vu 15 120 empty empty -1 -8 0 10 -66577 -1 1 0;
#X obj 202 163 pvu~;
#X obj 380 92 vsl 20 100 0 127 0 0 empty empty vol 0 -9 0 10 -4033
-260097 -1 4100 1;
#X obj 425 85 vradio 15 0 0 8 empty empty steps 0 -8 0 10 -260160 -131136
-1 3;
#X obj 300 169 bng 60 250 50 0 empty empty bang! 17 7 0 10 -258049
-262113 -1;
#X msg 169 221 bang;
#X obj 169 246 print out;
#X connect 1 0 4 0;
#X connect 2 0 1 0;
#X connect 4 0 5 0;
#X connect 4 0 5 1;
#X connect 4 0 8 0;
#X connect 6 0 4 1;
#X connect 8 0 7 0;
#X connect 11 0 13 0;
#X connect 12 0 13 0;
#X coords 0 -1 1 1 270 224 1 279 34;
#X restore 242 49 pd canvas;
